<?xml version="1.0" encoding="UTF-8" standalone="no"?>
<!-- This file contains code from the MDN -->
<svg viewBox="0 0 1200 900" width="1200" height="900" xmlns="http://www.w3.org/2000/svg">
    <g transform="translate(0 0)">
        <!-- MoveTo and horizontal LineTo -->
        <path fill="none" stroke="#f00"
            d="M 10,10 h 10
               m  0,10 h 10
               m  0,10 h 10
               M 40,20 h 10
               m  0,10 h 10
               m  0,10 h 10
               m  0,10 h 10
               M 50,50 h 10
               m-20,10 h 10
               m-20,10 h 10
               m-20,10 h 10" />
    </g>

    <g transform="translate(150 50)">
        <rect x="-30" y="-30" width="60" height="60" />

        <rect x="-30" y="-30" width="60" height="60" fill="red"
              transform="skewX(30) translate(50 10)" />
    </g>

    <g transform="translate(0 100)">
        <!-- LineTo commands with absolute coordinates -->
        <path fill="none" stroke="#f00"
              d="M 10,10
                 L 90,90
                 V 10
                 H 50" />
    </g>

    <g transform="translate(100 100)">
        <!-- LineTo commands with relative coordinates -->
        <path fill="none" stroke="#f00"
            d="M 10,10
               l 80,80
               v -80
               h -40" />
    </g>

    <g transform="translate(0 200)">
        <!-- Cubic Bézier curve with absolute coordinates -->
        <path fill="none" stroke="red"
              d="M 10,90
                 C 30,90 25,10 50,10
                 S 70,90 90,90" />

        <!-- Cubic Bézier curve with relative coordinates -->
        <path fill="none" stroke="red"
              d="M 110,90
                 c 20,0 15,-80 40,-80
                 s 20,80 40,80" />

        <!-- Highlight the curve vertex and control points -->
        <g id="ControlPoints">
            <!-- First cubic command control points -->
            <line x1="10" y1="90" x2="30" y2="90" stroke="lightgrey" />
            <circle cx="30" cy="90" r="1.5"/>

            <line x1="50" y1="10" x2="25" y2="10" stroke="lightgrey" />
            <circle cx="25" cy="10" r="1.5"/>

            <!-- Second smooth command control points (the first one is implicit) -->
            <line x1="50" y1="10" x2="75" y2="10" stroke="lightgrey" stroke-dasharray="2" />
            <circle cx="75" cy="10" r="1.5" fill="lightgrey"/>

            <line x1="90" y1="90" x2="70" y2="90" stroke="lightgrey" />
            <circle cx="70" cy="90" r="1.5" />

            <!-- curve vertex points -->
            <circle cx="10" cy="90" r="1.5"/>
            <circle cx="50" cy="10" r="1.5"/>
            <circle cx="90" cy="90" r="1.5"/>
        </g>

        <use href="#ControlPoints" x="100" />
    </g>

    <g transform="translate(0 300)">
        <!-- Quadratic Bézier curve with implicit repetition -->
        <path fill="none" stroke="red"
            d="M 10,50
               Q 25,25 40,50
               t 30,0 30,0 30,0 30,0 30,0" />

        <!-- Highlight the curve vertex and control points -->
        <polyline points="10,50 25,25 40,50" stroke="rgba(0,0,0,.2)" fill="none" />
        <circle cx="25" cy="25" r="1.5" />

        <!-- Curve vertex points -->
        <circle cx="10" cy="50" r="1.5"/>
        <circle cx="40" cy="50" r="1.5"/>

        <g id="SmoothQuadraticDown">
            <polyline points="40,50 55,75 70,50" stroke="rgba(0,0,0,.2)" stroke-dasharray="2" fill="none" />
            <circle cx="55" cy="75" r="1.5" fill="lightgrey" />
            <circle cx="70" cy="50" r="1.5" />
        </g>

        <g id="SmoothQuadraticUp">
            <polyline points="70,50 85,25 100,50" stroke="rgba(0,0,0,.2)" stroke-dasharray="2" fill="none" />
            <circle cx="85" cy="25" r="1.5" fill="lightgrey" />
            <circle cx="100" cy="50" r="1.5" />
        </g>

        <use href="#SmoothQuadraticDown" x="60" />
        <use href="#SmoothQuadraticUp"   x="60" />
        <use href="#SmoothQuadraticDown" x="120" />
    </g>

    <g transform="translate(200 100)">
        <!-- Using g to inherit presentation attributes -->
        <g fill="white" stroke="green" stroke-width="5">
            <ellipse cx="50" cy="40" rx="40" ry="20" />
            <circle cx="70" cy="60" r="25" />
        </g>
    </g>

    <g transform="translate(200 200)">
        <!-- Default value for fill-rule -->
        <polygon fill-rule="nonzero" stroke="red"
                 points="50,0 21,90 98,35 2,35 79,90"/>
    </g>

    <g transform="translate(200 300)">
        <!--
        The points in the center of the shape has 2
        path segments (materialized by the red stroke)
        between them and Infinity therefor there are
        considered outside the shape, that's why the
        interior of the star is hollow (but not the branch).
        -->
        <polygon fill-rule="evenodd" stroke="red"
                 points="50,0 21,90 98,35 02,35 79,90"/>
    </g>

    <g transform="translate(300 0)">
        <path fill="none" stroke="red"
              d="M 10,30
                 A 20,20 0,0,1 50,30
                 A 20,20 0,0,1 90,30
                 Q 90,60 50,90
                 Q 10,60 10,30 z" />
    </g>

    <g transform="translate(0 400)">
        <g transform="scale(10 10)">
            <!--
            An open shape with the last point of
            the path different to the first one
            -->
            <path stroke="red"
                d="M 5,1
                   l -4,8 8,0" />

            <!--
            An open shape with the last point of
            the path matching the first one
            -->
            <path stroke="red"
                d="M 15,1
                   l -4,8 8,0 -4,-8" />

            <!--
            A closed shape with the last point of
            the path different to the first one
            -->
            <path stroke="red"
                d="M 25,1
                   l -4,8 8,0
                   z" />
        </g>
    </g>

    <g transform="translate(0 500)">
        <rect x="1" y="1" rx="50" width="1198" height="398"
              fill="none" stroke="blue" stroke-width="1" />

        <path fill="red" stroke="blue" stroke-width="5"
              d="M300,200 h-150 a150,150 0 1,0 150,-150 z" />
        <path fill="yellow" stroke="blue" stroke-width="5"
              d="M275,175 v-150 a150,150 0 0,0 -150,150 z" />

        <path fill="none" stroke="red" stroke-width="5"
              d="M600,350 l 50,-25
                 a25,25 -30 0,1 50,-25 l 50,-25
                 a25,50 -30 0,1 50,-25 l 50,-25
                 a25,75 -30 0,1 50,-25 l 50,-25
                 a25,100 -30 0,1 50,-25 l 50,-25" />
    </g>

    <g transform="translate(300 180) scale(25)">
        <!--
        Upper left path:
        Effect of the "miter" value
        -->
        <path d="M1,5 a2,2 0,0,0 2,-3 a3,3 0 0 1 2,3.5" stroke="black" fill="none" />

        <!--
        Center path:
        Effect of the "round" value
        -->
        <path d="M7,5 a2,2 0,0,0 2,-3 a3,3 0 0 1 2,3.5" stroke="black" fill="none"
              stroke-linejoin="round" stroke-linecap="round" />

        <!--
        Upper right path:
        Effect of the "bevel" value
        -->
        <path d="M13,5 a2,2 0,0,0 2,-3 a3,3 0 0 1 2,3.5" stroke="black" fill="none"
              stroke-linejoin="bevel" stroke-linecap="square" />

        <!--
        Bottom left path:
        Effect of the "miter-clip" value
        with fallback to "miter" if not supported.
        -->
        <path d="M3,11 a2,2 0,0,0 2,-3 a3,3 0 0 1 2,3.5" stroke="black" fill="none"
              stroke-linejoin="miter-clip" />

        <!--
        Bottom right path:
        Effect of the "arcs" value
        with fallback to "miter" if not supported.
        -->
        <path d="M9,11 a2,2 0,0,0 2,-3 a3,3 0 0 1 2,3.5" stroke="black" fill="none"
              stroke-linejoin="arcs" />

        <!--
        the following pink lines highlight the
        position of the path for each stroke
        -->
        <g id="highlight">
            <path d="M1,5 a2,2 0,0,0 2,-3 a3,3 0 0 1 2,3.5"
                  stroke="pink" fill="none" stroke-width="0.025" />
            <circle cx="1" cy="5"   r="0.05" fill="pink" />
            <circle cx="3" cy="2"   r="0.05" fill="pink" />
            <circle cx="5" cy="5.5" r="0.05" fill="pink" />
        </g>

        <use href="#highlight" x="6" />
        <use href="#highlight" x="12" />
        <use href="#highlight" x="2" y="6" />
        <use href="#highlight" x="8" y="6" />
    </g>

    <g transform="translate(450 80) scale(20)">
        <!-- Effect of the "miter" value -->
        <path d="M1,5 l2,-3 l2,3" stroke="black" fill="none"
              stroke-linejoin="miter" />

        <!-- Effect of the "miter" value on a sharp angle
        where de default miter limit is exceeded -->
        <path d="M7,5 l0.75,-3 l0.75,3" stroke="black" fill="none"
              stroke-linejoin="miter" />

        <!-- the following red dotted line show where
        the miter value falls back to the bevel value -->
        <path d="M0,0 h10" stroke="red" stroke-dasharray="0.05"  stroke-width="0.025"/>

        <!-- the following pink lines highlight the position of the path for each stroke -->
        <g>
            <path d="M1,5 l2,-3 l2,3" stroke="pink" fill="none" stroke-width="0.025" />
            <circle cx="1" cy="5" r="0.05" fill="pink" />
            <circle cx="3" cy="2" r="0.05" fill="pink" />
            <circle cx="5" cy="5" r="0.05" fill="pink" />

            <path d="M7,5 l0.75,-3 l0.75,3" stroke="pink" fill="none" stroke-width="0.025" />
            <circle cx="7"    cy="5" r="0.05" fill="pink" />
            <circle cx="7.75" cy="2" r="0.05" fill="pink" />
            <circle cx="8.5"  cy="5" r="0.05" fill="pink" />
        </g>
    </g>
</svg>
